<?xml version="1.0" standalone="no"?>
<!DOCTYPE svg PUBLIC "-//W3C//DTD SVG 20010904//EN"
 "http://www.w3.org/TR/2001/REC-SVG-20010904/DTD/svg10.dtd">
<svg version="1.0" xmlns="http://www.w3.org/2000/svg"
 width="448.000000pt" height="448.000000pt" viewBox="0 0 448.000000 448.000000"
 preserveAspectRatio="xMidYMid meet">
<metadata>
Created by potrace 1.11, written by Peter Selinger 2001-2013
</metadata>
<g transform="translate(0.000000,448.000000) scale(0.100000,-0.100000)"
fill="#000000" stroke="none">
<path d="M0 2240 l0 -2240 2240 0 2240 0 0 2240 0 2240 -2240 0 -2240 0 0
-2240z m1420 -50 l0 -900 -255 0 -255 0 0 90 0 89 133 3 132 3 0 715 0 715
-132 3 -133 3 0 83 c0 45 3 86 7 89 3 4 118 7 255 7 l248 0 0 -900z m820 811
l0 -88 -62 -6 c-71 -6 -103 -26 -132 -83 -18 -35 -21 -63 -26 -259 -6 -241 -8
-251 -72 -312 -18 -18 -51 -39 -73 -47 l-40 -14 37 -16 c21 -9 53 -30 73 -47
67 -59 69 -70 75 -314 5 -193 8 -225 25 -259 28 -56 61 -77 133 -83 l62 -6 0
-88 0 -89 -112 0 c-62 0 -131 5 -153 11 -69 19 -129 64 -161 122 l-29 52 -5
240 c-7 267 -12 293 -72 339 -19 14 -60 31 -91 37 l-57 12 0 88 0 87 43 7 c81
13 122 38 148 91 23 46 24 61 29 289 l5 240 30 55 c54 97 126 127 323 129
l102 1 0 -89z m1248 -813 l2 -898 -255 0 -255 0 0 90 0 90 130 0 130 0 0 720
0 720 -130 0 -130 0 0 83 c0 46 3 87 7 91 4 3 117 5 252 4 l246 -3 3 -897z"/>
</g>
</svg>
